<svg width="15" height="13" viewBox="0 0 15 13" fill="none" xmlns="http://www.w3.org/2000/svg">
<path d="M0.738281 6.5C1.32578 3.3 4.13016 0.875 7.50016 0.875C10.8702 0.875 13.6739 3.3 14.262 6.5C13.6745 9.7 10.8702 12.125 7.50016 12.125C4.13016 12.125 1.32641 9.7 0.738281 6.5V6.5ZM7.50016 9.625C8.32896 9.625 9.12381 9.29576 9.70987 8.70971C10.2959 8.12366 10.6252 7.3288 10.6252 6.5C10.6252 5.6712 10.2959 4.87634 9.70987 4.29029C9.12381 3.70424 8.32896 3.375 7.50016 3.375C6.67136 3.375 5.8765 3.70424 5.29045 4.29029C4.7044 4.87634 4.37516 5.6712 4.37516 6.5C4.37516 7.3288 4.7044 8.12366 5.29045 8.70971C5.8765 9.29576 6.67136 9.625 7.50016 9.625ZM7.50016 8.375C7.00288 8.375 6.52596 8.17746 6.17433 7.82583C5.8227 7.47419 5.62516 6.99728 5.62516 6.5C5.62516 6.00272 5.8227 5.52581 6.17433 5.17417C6.52596 4.82254 7.00288 4.625 7.50016 4.625C7.99744 4.625 8.47435 4.82254 8.82598 5.17417C9.17761 5.52581 9.37516 6.00272 9.37516 6.5C9.37516 6.99728 9.17761 7.47419 8.82598 7.82583C8.47435 8.17746 7.99744 8.375 7.50016 8.375Z" fill="#03053D"/>
</svg>
